# File created by Blade
# Date/Time:  Thu Jan 22 19:34:22 2015
#---------------------------------------------------------
:version 1.10
:name HOM
:units
  mass 1.0
  length 1.000000
  angle deg
:documentation
     Acclaim Skeleton File
:root
   axis xyz
   order TX TY TZ RX RY RZ
   position 0.000000 0.000000 0.000000
   orientation 0 0 0
:bonedata
   begin
      id 1
      name RightUpLeg_dum
      direction -1.000000 0.000000 0.000000
      length 4.478084
      axis 0.0 0.0 0.0 xyz
   end
   begin
      id 2
      name LeftUpLeg_dum
      direction 1.000000 0.000000 0.000000
      length 4.478084
      axis 0.0 0.0 0.0 xyz
   end
   begin
      id 3
      name Spine_dum
      direction 0.000000 1.000000 0.000000
      length 6.068208
      axis 0.0 0.0 0.0 xyz
   end
   begin
      id 4
      name RightUpLeg
      direction 0.000000 -1.000000 0.000000
      length 16.405774
      axis 0.0 0.0 0.0 xyz
      dof rx ry rz
   end
   begin
      id 5
      name RightLeg
      direction 0.000000 -1.000000 0.000000
      length 14.644143
      axis 0.0 0.0 0.0 xyz
      dof rx ry rz
   end
   begin
      id 6
      name RightFoot
      direction 0.000000 -0.258819 0.965926
      length 5.806150
      axis 15.0 0.0 0.0 xyz
      dof rx ry rz
   end
   begin
      id 7
      name RightToeBase
      direction 0.000000 0.000000 1.000000
      length 2.952750
      axis 0.0 0.0 0.0 xyz
      dof rx ry rz
   end
   begin
      id 8
      name LeftUpLeg
      direction 0.000000 -1.000000 0.000000
      length 16.405774
      axis 0.0 0.0 0.0 xyz
      dof rx ry rz
   end
   begin
      id 9
      name LeftLeg
      direction 0.000000 -1.000000 0.000000
      length 14.644143
      axis 0.0 0.0 0.0 xyz
      dof rx ry rz
   end
   begin
      id 10
      name LeftFoot
      direction 0.000000 -0.258819 0.965926
      length 5.806150
      axis 15.0 0.0 0.0 xyz
      dof rx ry rz
   end
   begin
      id 11
      name LeftToeBase
      direction 0.000000 0.000000 1.000000
      length 2.952750
      axis 0.0 0.0 0.0 xyz
      dof rx ry rz
   end
   begin
      id 12
      name Spine
      direction 0.000000 1.000000 0.000000
      length 0.000000
      axis 0.0 0.0 0.0 xyz
      dof rx ry rz
   end
   begin
      id 13
      name Spine_dum1
      direction 0.000000 1.000000 0.000000
      length 10.013923
      axis 0.0 0.0 0.0 xyz
   end
   begin
      id 14
      name Spine_dum2
      direction 0.000000 1.000000 0.000000
      length 10.013923
      axis 0.0 0.0 0.0 xyz
   end
   begin
      id 15
      name Spine_dum3
      direction 0.000000 1.000000 0.000000
      length 15.777476
      axis 0.0 0.0 0.0 xyz
   end
   begin
      id 16
      name RightShoulder
      direction -1.000000 0.000000 0.000000
      length 7.190220
      axis 0.0 0.0 90.0 xyz
      dof rx ry rz
   end
   begin
      id 17
      name RightArm
      direction -1.000000 0.000000 0.000000
      length 10.177469
      axis 0.0 0.0 90.0 xyz
      dof rx ry rz
   end
   begin
      id 18
      name RightForeArm
      direction -1.000000 0.000000 0.000000
      length 8.392114
      axis 0.0 0.0 90.0 xyz
      dof ry rz rx
   end
   begin
      id 19
      name RightHand
      direction -1.000000 0.000000 0.000000
      length 0.000000
      axis 0.0 0.0 90.0 xyz
      dof rx ry rz
   end
   begin
      id 20
      name RightHand_dum1
      direction -1.000000 0.000000 0.000000
      length 3.937000
      axis 0.0 0.0 90.0 xyz
   end
   begin
      id 21
      name RightHand_dum2
      direction 0.000000 0.000000 0.000000
      length 0.000000
      axis 0.0 0.0 90.0 xyz
   end
   begin
      id 22
      name RightHandThumb1
      direction 0.000000 0.000000 1.000000
      length 3.937000
      axis 0.0 0.0 90.0 xyz
      dof rx rz ry
   end
   begin
      id 23
      name LeftShoulder
      direction 1.000000 0.000000 0.000000
      length 7.190220
      axis 0.0 0.0 -90.0 xyz
      dof rx ry rz
   end
   begin
      id 24
      name LeftArm
      direction 1.000000 0.000000 0.000000
      length 10.177469
      axis 0.0 0.0 -90.0 xyz
      dof rx ry rz
   end
   begin
      id 25
      name LeftForeArm
      direction 1.000000 0.000000 0.000000
      length 8.392114
      axis 0.0 0.0 -90.0 xyz
      dof ry rz rx
   end
   begin
      id 26
      name LeftHand
      direction 1.000000 0.000000 0.000000
      length 0.000000
      axis 0.0 0.0 -90.0 xyz
      dof rx ry rz
   end
   begin
      id 27
      name LeftHand_dum1
      direction 1.000000 0.000000 0.000000
      length 3.937000
      axis 0.0 0.0 -90.0 xyz
   end
   begin
      id 28
      name LeftHand_dum2
      direction 0.000000 0.000000 0.000000
      length 0.000000
      axis 0.0 0.0 -90.0 xyz
   end
   begin
      id 29
      name LeftHandThumb1
      direction 0.000000 0.000000 1.000000
      length 3.937000
      axis 0.0 0.0 -90.0 xyz
      dof rx rz ry
   end
   begin
      id 30
      name Head
      direction 0.000000 1.000000 0.000000
      length 4.527550
      axis 0.0 0.0 0.0 xyz
      dof rx ry rz
   end
:hierarchy
   begin
      root RightUpLeg_dum LeftUpLeg_dum Spine_dum
      RightUpLeg_dum RightUpLeg
      LeftUpLeg_dum LeftUpLeg
      Spine_dum Spine
      RightUpLeg RightLeg
      RightLeg RightFoot
      RightFoot RightToeBase
      LeftUpLeg LeftLeg
      LeftLeg LeftFoot
      LeftFoot LeftToeBase
      Spine Spine_dum1 Spine_dum2 Spine_dum3
      Spine_dum1 RightShoulder
      Spine_dum2 LeftShoulder
      Spine_dum3 Head
      RightShoulder RightArm
      RightArm RightForeArm
      RightForeArm RightHand
      RightHand RightHand_dum1 RightHand_dum2
      RightHand_dum2 RightHandThumb1
      LeftShoulder LeftArm
      LeftArm LeftForeArm
      LeftForeArm LeftHand
      LeftHand LeftHand_dum1 LeftHand_dum2
      LeftHand_dum2 LeftHandThumb1
   end

# File created by Blade
# Date/Time:  Thu Jan 22 19:34:15 2015
# Frame Rate: 120.000 fps
#------------------------------------------------------
:FULLY-SPECIFIED
:DEGREES
414
root -14.065309 28.387344 -7.573077 21.349589 -11.958135 3.315917
RightUpLeg -56.656327 -31.536184 5.012972
RightLeg 63.933489 -0.000000 -0.000000
RightFoot -34.603509 -0.530693 4.975406
RightToeBase 4.832517 -0.000000 -0.000000
LeftUpLeg -22.860980 37.099805 16.835122
LeftLeg 6.928959 -0.000000 -0.000000
LeftFoot -0.480122 11.815993 -16.167474
LeftToeBase -5.882251 -0.000000 0.000000
Spine -4.226409 -3.042568 3.075847
RightShoulder -16.992432 -13.864541 -19.722838
RightArm 25.972740 7.543757 52.521986
RightForeArm -19.031833 -0.000000 45.601192
RightHand 13.424220 0.000000 4.100737
RightHandThumb1 -24.326973 -0.000000 -32.862282
LeftShoulder -22.152465 6.460029 19.196743
LeftArm 14.930402 19.403347 -76.637904
LeftForeArm 29.525621 -0.000000 42.832470
LeftHand -2.062977 -0.000000 -12.569027
LeftHandThumb1 -26.253704 0.000000 33.147579
Head -10.279127 5.026262 -6.404542
415
root -14.074004 28.324768 -7.593897 21.539697 -12.245422 3.358729
RightUpLeg -57.183611 -31.229784 5.031073
RightLeg 64.416481 -0.000000 -0.000000
RightFoot -34.797608 -0.628577 4.842904
RightToeBase 4.919982 -0.000000 -0.000000
LeftUpLeg -22.758046 36.761268 17.138911
LeftLeg 6.999119 -0.000000 -0.000000
LeftFoot -0.597589 11.811548 -18.015741
LeftToeBase -4.723910 -0.000000 0.000000
Spine -4.303942 -2.855501 3.158024
RightShoulder -16.890660 -13.797016 -19.724857
RightArm 25.986774 7.635375 52.874089
RightForeArm -18.926226 -0.000000 45.718749
RightHand 13.407966 0.000000 3.753710
RightHandThumb1 -24.326973 -0.000000 -32.862282
LeftShoulder -22.167624 6.413561 19.158660
LeftArm 14.846385 19.524785 -76.908348
LeftForeArm 29.556136 -0.000000 42.717440
LeftHand -2.086328 -0.000000 -12.432404
LeftHandThumb1 -26.253704 0.000000 33.147579
Head -10.484266 5.402499 -6.454583
416
root -14.082164 28.260426 -7.612684 21.689571 -12.567775 3.370281
RightUpLeg -57.656458 -30.893311 5.036957
RightLeg 64.891042 -0.000000 -0.000000
RightFoot -34.985112 -0.652776 4.829946
RightToeBase 5.042706 -0.000000 -0.000000
LeftUpLeg -22.602914 36.498376 17.507965
LeftLeg 7.104128 -0.000000 -0.000000
LeftFoot -0.915522 12.171414 -20.132575
LeftToeBase -4.211984 -0.000000 0.000000
Spine -4.319630 -2.611484 3.225161
RightShoulder -16.838295 -13.727742 -19.673575
RightArm 26.060779 7.722208 53.212688
RightForeArm -18.807086 0.000000 45.776285
RightHand 13.255479 0.000000 3.401766
RightHandThumb1 -24.326973 -0.000000 -32.862282
LeftShoulder -22.154259 6.373394 19.176598
LeftArm 14.753192 19.636140 -77.236717
LeftForeArm 29.660135 -0.000000 42.605855
LeftHand -2.082273 0.000000 -12.378606
LeftHandThumb1 -26.253704 0.000000 33.147579
Head -10.670878 5.589474 -6.455354
417
root -14.088730 28.199205 -7.627970 21.815044 -12.941472 3.402440
RightUpLeg -58.108171 -30.538932 4.994463
RightLeg 65.357003 -0.000000 -0.000000
RightFoot -35.114729 -0.688719 4.767240
RightToeBase 5.048752 -0.000000 -0.000000
LeftUpLeg -22.405708 36.233281 17.876695
LeftLeg 7.282517 -0.000000 -0.000000
LeftFoot -1.362132 12.774918 -22.495534
LeftToeBase -3.916693 -0.000000 0.000000
Spine -4.294394 -2.345393 3.269369
RightShoulder -16.870233 -13.769000 -19.603279
RightArm 26.330317 7.749191 53.589627
RightForeArm -18.706531 -0.000000 45.769531
RightHand 13.216526 -0.000000 3.221947
RightHandThumb1 -24.326973 -0.000000 -32.862282
LeftShoulder -22.179532 6.268090 19.079051
LeftArm 14.621248 20.011808 -77.301046
LeftForeArm 29.472928 -0.000000 42.673932
LeftHand -2.350240 -0.000000 -12.147547
LeftHandThumb1 -26.253704 0.000000 33.147579
Head -10.926390 5.765783 -6.520467
418
root -14.095784 28.139217 -7.639266 21.916532 -13.353364 3.394538
RightUpLeg -58.508034 -30.189279 4.976906
RightLeg 65.780444 -0.000000 -0.000000
RightFoot -35.243528 -0.628005 4.759034
RightToeBase 5.093150 -0.000000 -0.000000
LeftUpLeg -22.170778 36.160556 18.252391
LeftLeg 7.470218 -0.000000 -0.000000
LeftFoot -1.745253 13.169329 -25.349731
LeftToeBase -3.882369 -0.000000 0.000000
Spine -4.247426 -2.084936 3.313231
RightShoulder -16.741032 -13.640804 -19.545555
RightArm 26.350977 7.808761 53.969486
RightForeArm -18.755192 -0.000000 45.820410
RightHand 13.321631 0.000000 3.225156
RightHandThumb1 -24.326973 -0.000000 -32.862282
LeftShoulder -22.185885 6.374166 19.109152
LeftArm 14.638668 19.667817 -77.931389
LeftForeArm 29.909952 0.000000 42.281470
LeftHand -2.030804 0.000000 -12.428878
LeftHandThumb1 -26.253704 0.000000 33.147579
Head -11.101628 5.969485 -6.526241
419
root -14.096547 28.080868 -7.649237 22.005390 -13.792308 3.446982
RightUpLeg -58.928966 -29.853892 4.892668
RightLeg 66.223794 -0.000000 -0.000000
RightFoot -35.342999 -0.570692 4.710841
RightToeBase 5.067975 -0.000000 -0.000000
LeftUpLeg -21.982285 36.277365 18.445513
LeftLeg 7.629810 -0.000000 -0.000000
LeftFoot -1.932191 13.285762 -27.864955
LeftToeBase -2.621914 -0.000000 0.000000
Spine -4.186268 -1.824222 3.280558
RightShoulder -16.688054 -13.618274 -19.412581
RightArm 26.550736 7.828117 54.309445
RightForeArm -18.695185 0.000000 45.811941
RightHand 13.299947 -0.000000 3.090493
RightHandThumb1 -24.326973 -0.000000 -32.862282
LeftShoulder -22.169306 6.239148 19.161116
LeftArm 14.337085 19.653560 -78.397849
LeftForeArm 30.037179 -0.000000 42.184840
LeftHand -2.080033 0.000000 -12.430651
LeftHandThumb1 -26.253704 0.000000 33.147579
Head -11.313480 6.114657 -6.551497
420
root -14.095053 28.022979 -7.655049 22.048321 -14.231423 3.532352
RightUpLeg -59.318898 -29.587191 4.775873
RightLeg 66.672290 -0.000000 -0.000000
RightFoot -35.464746 -0.454025 4.675350
RightToeBase 5.126926 -0.000000 -0.000000
LeftUpLeg -21.769378 36.464135 18.585678
LeftLeg 7.774712 -0.000000 -0.000000
LeftFoot -1.869255 13.116579 -29.704399
LeftToeBase -0.779513 -0.000000 0.000000
Spine -4.085413 -1.612957 3.258325
RightShoulder -16.624830 -13.479609 -19.416466
RightArm 26.678641 7.676889 54.709513
RightForeArm -18.632266 -0.000000 45.784982
RightHand 13.311620 -0.000000 2.970538
RightHandThumb1 -24.326973 -0.000000 -32.862282
LeftShoulder -22.171145 6.204244 19.111074
LeftArm 14.117780 19.566699 -78.833319
LeftForeArm 30.264584 -0.000000 42.101903
LeftHand -2.097087 -0.000000 -12.407068
LeftHandThumb1 -26.253704 0.000000 33.147579
Head -11.522749 6.358938 -6.639948
421
root -14.089848 27.965648 -7.650723 22.037348 -14.751496 3.648354
RightUpLeg -59.660336 -29.319466 4.583530
RightLeg 67.126337 -0.000000 -0.000000
RightFoot -35.561730 -0.260716 4.621895
RightToeBase 5.048343 -0.000000 -0.000000
LeftUpLeg -21.444118 36.836497 18.656629
LeftLeg 7.798681 -0.000000 -0.000000
LeftFoot -1.676176 12.768527 -30.919689
LeftToeBase 1.088430 -0.000000 -0.000000
Spine -3.956927 -1.412735 3.191754
RightShoulder -16.470407 -13.368509 -19.412294
RightArm 26.820236 7.589331 55.154652
RightForeArm -18.736505 -0.000000 45.785905
RightHand 13.301303 -0.000000 2.855050
RightHandThumb1 -24.326973 -0.000000 -32.862282
LeftShoulder -22.238911 6.254759 19.001142
LeftArm 13.979284 19.633755 -79.113476
LeftForeArm 30.347481 -0.000000 42.022854
LeftHand -2.140998 -0.000000 -12.256110
LeftHandThumb1 -26.253704 0.000000 33.147579
Head -11.700797 6.695217 -6.755078
422
root -14.086421 27.909050 -7.647917 22.059372 -15.182061 3.715894
RightUpLeg -60.011387 -29.134359 4.498505
RightLeg 67.544592 -0.000000 -0.000000
RightFoot -35.664136 -0.096835 4.518324
RightToeBase 5.012283 -0.000000 -0.000000
LeftUpLeg -21.203422 37.161902 18.797654
LeftLeg 7.856448 -0.000000 -0.000000
LeftFoot -1.369434 12.370785 -31.727373
LeftToeBase 2.046548 -0.000000 -0.000000
Spine -3.842400 -1.255727 3.227839
RightShoulder -16.359704 -13.190795 -19.458172
RightArm 26.897302 7.420890 55.612549
RightForeArm -18.800886 -0.000000 45.806000
RightHand 13.347167 0.000000 2.868093
RightHandThumb1 -24.326973 -0.000000 -32.862282
LeftShoulder -22.280265 6.271192 18.899638
LeftArm 13.793715 19.694323 -79.443477
LeftForeArm 30.368888 0.000000 41.947781
LeftHand -2.167436 -0.000000 -12.136358
LeftHandThumb1 -26.253704 0.000000 33.147579
Head -11.908189 6.929576 -6.852192
423
root -14.086348 27.852206 -7.647699 22.110960 -15.566172 3.720876
RightUpLeg -60.368967 -28.990520 4.526617
RightLeg 67.927461 -0.000000 -0.000000
RightFoot -35.725258 0.117800 4.422608
RightToeBase 4.792512 -0.000000 -0.000000
LeftUpLeg -20.918083 37.163122 19.160255
LeftLeg 7.969906 -0.000000 -0.000000
LeftFoot -1.232475 12.127832 -32.560070
LeftToeBase 3.512235 -0.000000 -0.000000
Spine -3.752901 -1.127905 3.336026
RightShoulder -16.246125 -13.041901 -19.456334
RightArm 27.021322 7.152470 55.903299
RightForeArm -18.811661 -0.000000 45.766634
RightHand 13.371067 -0.000000 2.785689
RightHandThumb1 -24.326973 -0.000000 -32.862282
LeftShoulder -22.263559 6.144575 18.895173
LeftArm 13.373059 19.663168 -79.934430
LeftForeArm 30.484641 0.000000 41.886110
LeftHand -2.170795 -0.000000 -12.130592
LeftHandThumb1 -26.253704 0.000000 33.147579
Head -12.063239 7.285340 -7.035849
424
root -14.082783 27.794479 -7.642507 22.163692 -15.941209 3.739677
RightUpLeg -60.724706 -28.892571 4.548342
RightLeg 68.302870 -0.000000 -0.000000
RightFoot -35.870014 0.238585 4.206797
RightToeBase 4.954694 -0.000000 -0.000000
LeftUpLeg -20.600296 36.947200 19.588733
LeftLeg 8.135994 -0.000000 -0.000000
LeftFoot -1.401321 11.893415 -33.486879
LeftToeBase 5.476137 -0.000000 -0.000000
Spine -3.677117 -1.037105 3.484012
RightShoulder -16.127449 -12.926586 -19.532186
RightArm 27.145741 6.874364 56.284771
RightForeArm -18.781763 -0.000000 45.801904
RightHand 13.265285 -0.000000 2.660220
RightHandThumb1 -24.326973 -0.000000 -32.862282
LeftShoulder -22.307044 6.252883 18.736237
LeftArm 13.229899 19.693543 -80.253743
LeftForeArm 30.537347 -0.000000 41.817509
LeftHand -2.113965 -0.000000 -12.088200
LeftHandThumb1 -26.253704 0.000000 33.147579
Head -12.241122 7.775597 -7.241366
